<svg id="visual" viewBox="0 0 900 450" width="900" height="450" xmlns="http://www.w3.org/2000/svg" xmlns:xlink="http://www.w3.org/1999/xlink" version="1.1"><g transform="translate(484.7848636679348 224.82335327060508)"><path d="M126.8 -160.2C155.8 -126.7 165.1 -78.7 173.1 -30.9C181.2 17 188 64.8 174 111.2C160 157.7 125.1 202.9 82.7 211.7C40.2 220.4 -10 192.8 -65.6 174.9C-121.3 157 -182.4 148.8 -217 113.4C-251.7 78 -259.8 15.4 -243.7 -37.3C-227.6 -90 -187.4 -132.7 -142.8 -163.5C-98.1 -194.3 -49.1 -213.1 -0.1 -213C48.9 -212.9 97.7 -193.8 126.8 -160.2" fill="#BB004B"></path></g></svg>